<svg xmlns="http://www.w3.org/2000/svg" width="960" height="620" viewBox="0 0 960 620" role="img" aria-labelledby="title desc">
  <title id="title">Exam maker preview</title>
  <desc id="desc">AI worksheet generation and validation workflow preview.</desc>
  <rect width="960" height="620" fill="#f8f7f4"/>
  <rect x="70" y="60" width="820" height="500" rx="8" fill="#ffffff" stroke="#ded8cc"/>
  <text x="104" y="112" font-family="Arial, sans-serif" font-size="26" font-weight="700" fill="#1f2c34">Exam Maker Workflow</text>
  <rect x="104" y="152" width="332" height="330" rx="6" fill="#f4f0e8" stroke="#ddd2bd"/>
  <text x="132" y="190" font-family="Arial, sans-serif" font-size="18" fill="#1f2c34">Passage Input</text>
  <rect x="132" y="222" width="240" height="16" fill="#283b44" opacity=".22"/>
  <rect x="132" y="254" width="268" height="16" fill="#283b44" opacity=".16"/>
  <rect x="132" y="286" width="216" height="16" fill="#283b44" opacity=".16"/>
  <rect x="132" y="330" width="104" height="36" rx="4" fill="#1f6f5f"/>
  <text x="158" y="354" font-family="Arial, sans-serif" font-size="14" fill="#ffffff">Generate</text>
  <rect x="488" y="152" width="300" height="128" rx="6" fill="#edf4f1" stroke="#ccded8"/>
  <text x="516" y="190" font-family="Arial, sans-serif" font-size="18" fill="#1f2c34">Validation Warnings</text>
  <circle cx="530" cy="228" r="7" fill="#c9792d"/>
  <rect x="548" y="221" width="180" height="14" fill="#c9792d" opacity=".24"/>
  <circle cx="530" cy="256" r="7" fill="#2c8c63"/>
  <rect x="548" y="249" width="130" height="14" fill="#2c8c63" opacity=".24"/>
  <rect x="488" y="318" width="300" height="164" rx="6" fill="#f7fafc" stroke="#d5dee6"/>
  <text x="516" y="356" font-family="Arial, sans-serif" font-size="18" fill="#1f2c34">DOCX Output</text>
  <rect x="516" y="388" width="95" height="64" rx="4" fill="#ffffff" stroke="#cbd7df"/>
  <rect x="640" y="388" width="95" height="64" rx="4" fill="#ffffff" stroke="#cbd7df"/>
  <text x="536" y="424" font-family="Arial, sans-serif" font-size="14" fill="#40505a">Student</text>
  <text x="665" y="424" font-family="Arial, sans-serif" font-size="14" fill="#40505a">Answer</text>
  <path d="M438 318H486" stroke="#7c8b85" stroke-width="2"/>
  <path d="M478 310l14 8-14 8z" fill="#7c8b85"/>
</svg>
