<svg xmlns="http://www.w3.org/2000/svg" width="960" height="620" viewBox="0 0 960 620" role="img" aria-labelledby="title desc">
  <title id="title">Inventory app preview</title>
  <desc id="desc">Local-first inventory app screen preview.</desc>
  <rect width="960" height="620" fill="#f7f8f5"/>
  <rect x="86" y="72" width="788" height="476" rx="8" fill="#ffffff" stroke="#dce0d6"/>
  <text x="124" y="126" font-family="Arial, sans-serif" font-size="28" font-weight="700" fill="#1f302d">Jungdon Inventory</text>
  <rect x="124" y="166" width="320" height="54" rx="6" fill="#f0f5f2" stroke="#d3ded8"/>
  <text x="146" y="200" font-family="Arial, sans-serif" font-size="17" fill="#45524f">Search: yogurt / fridge / soon</text>
  <rect x="124" y="252" width="320" height="74" rx="6" fill="#ffffff" stroke="#dce0d6"/>
  <circle cx="160" cy="289" r="18" fill="#1f6f5f" opacity=".18"/>
  <text x="196" y="282" font-family="Arial, sans-serif" font-size="17" fill="#1f302d">Greek yogurt</text>
  <text x="196" y="306" font-family="Arial, sans-serif" font-size="14" fill="#68726f">Fridge / expires in 3 days</text>
  <rect x="124" y="344" width="320" height="74" rx="6" fill="#ffffff" stroke="#dce0d6"/>
  <circle cx="160" cy="381" r="18" fill="#c9792d" opacity=".18"/>
  <text x="196" y="374" font-family="Arial, sans-serif" font-size="17" fill="#1f302d">Eggs</text>
  <text x="196" y="398" font-family="Arial, sans-serif" font-size="14" fill="#68726f">Door shelf / expires tomorrow</text>
  <rect x="526" y="166" width="256" height="252" rx="6" fill="#f8f4eb" stroke="#ded0b2"/>
  <text x="554" y="208" font-family="Arial, sans-serif" font-size="20" font-weight="700" fill="#1f302d">Location Tree</text>
  <text x="554" y="252" font-family="Arial, sans-serif" font-size="16" fill="#4c5a57">Kitchen</text>
  <text x="584" y="286" font-family="Arial, sans-serif" font-size="16" fill="#4c5a57">Fridge</text>
  <text x="614" y="320" font-family="Arial, sans-serif" font-size="16" fill="#4c5a57">Door shelf</text>
  <text x="614" y="354" font-family="Arial, sans-serif" font-size="16" fill="#4c5a57">Main shelf</text>
  <rect x="526" y="452" width="256" height="42" rx="4" fill="#1f6f5f"/>
  <text x="604" y="479" font-family="Arial, sans-serif" font-size="16" fill="#ffffff">Scan Barcode</text>
</svg>
