<svg xmlns="http://www.w3.org/2000/svg" width="960" height="620" viewBox="0 0 960 620" role="img" aria-labelledby="title desc">
  <title id="title">Smart Baby preview</title>
  <desc id="desc">Privacy-first baby care app screen preview.</desc>
  <rect width="960" height="620" fill="#f5f8f8"/>
  <rect x="156" y="64" width="250" height="492" rx="32" fill="#1d2b2d"/>
  <rect x="176" y="96" width="210" height="424" rx="18" fill="#ffffff"/>
  <text x="200" y="142" font-family="Arial, sans-serif" font-size="20" font-weight="700" fill="#19302f">Care Today</text>
  <rect x="200" y="172" width="164" height="64" rx="8" fill="#eaf4f0"/>
  <text x="220" y="210" font-family="Arial, sans-serif" font-size="16" fill="#1b6e55">Feeding 2h ago</text>
  <rect x="200" y="252" width="164" height="64" rx="8" fill="#f7eddc"/>
  <text x="220" y="290" font-family="Arial, sans-serif" font-size="16" fill="#7c5624">Sleep 45m</text>
  <rect x="200" y="332" width="164" height="64" rx="8" fill="#eef2f8"/>
  <text x="220" y="370" font-family="Arial, sans-serif" font-size="16" fill="#405a7b">Album Review</text>
  <rect x="554" y="110" width="250" height="390" rx="8" fill="#ffffff" stroke="#d8e2df"/>
  <text x="586" y="158" font-family="Arial, sans-serif" font-size="24" font-weight="700" fill="#19302f">AI Candidate</text>
  <text x="586" y="204" font-family="Arial, sans-serif" font-size="16" fill="#556462">Label: CHILD_ONLY</text>
  <text x="586" y="236" font-family="Arial, sans-serif" font-size="16" fill="#556462">Confidence: 0.72</text>
  <text x="586" y="268" font-family="Arial, sans-serif" font-size="16" fill="#556462">State: REVIEW</text>
  <rect x="586" y="318" width="86" height="38" rx="4" fill="#1f6f5f"/>
  <text x="612" y="343" font-family="Arial, sans-serif" font-size="14" fill="#ffffff">Approve</text>
  <rect x="686" y="318" width="86" height="38" rx="4" fill="#ffffff" stroke="#b6c4c0"/>
  <text x="715" y="343" font-family="Arial, sans-serif" font-size="14" fill="#19302f">Edit</text>
  <path d="M426 300H534" stroke="#74847f" stroke-width="2" stroke-dasharray="8 8"/>
  <path d="M526 292l14 8-14 8z" fill="#74847f"/>
</svg>
