<svg xmlns="http://www.w3.org/2000/svg" width="960" height="620" viewBox="0 0 960 620" role="img" aria-labelledby="title desc">
  <title id="title">Redmine automation preview</title>
  <desc id="desc">Sanitized weekly report automation output preview.</desc>
  <rect width="960" height="620" fill="#f7f8f5"/>
  <rect x="64" y="54" width="832" height="512" rx="8" fill="#ffffff" stroke="#d9ded4"/>
  <rect x="64" y="54" width="832" height="54" rx="8" fill="#18312f"/>
  <text x="92" y="88" font-family="Arial, sans-serif" font-size="20" fill="#ffffff">Weekly Report Helper</text>
  <rect x="92" y="138" width="260" height="360" rx="6" fill="#eef3f1" stroke="#d6dedb"/>
  <text x="116" y="174" font-family="Arial, sans-serif" font-size="18" fill="#18312f">Input Outline</text>
  <text x="116" y="214" font-family="Consolas, monospace" font-size="16" fill="#37413f">- Project A</text>
  <text x="136" y="244" font-family="Consolas, monospace" font-size="16" fill="#37413f">- Web UI [80%]</text>
  <text x="136" y="274" font-family="Consolas, monospace" font-size="16" fill="#37413f">- API docs [done]</text>
  <text x="116" y="324" font-family="Consolas, monospace" font-size="16" fill="#37413f">- Automation</text>
  <text x="136" y="354" font-family="Consolas, monospace" font-size="16" fill="#37413f">- Validate fields</text>
  <rect x="386" y="138" width="204" height="142" rx="6" fill="#f6eddc" stroke="#e2cfa5"/>
  <text x="414" y="176" font-family="Arial, sans-serif" font-size="17" fill="#3b3324">Validation</text>
  <text x="414" y="216" font-family="Arial, sans-serif" font-size="32" font-weight="700" fill="#1c684f">PASS</text>
  <text x="414" y="246" font-family="Arial, sans-serif" font-size="14" fill="#5e5545">status, date, progress</text>
  <rect x="622" y="138" width="226" height="360" rx="6" fill="#f4f7fb" stroke="#d6deea"/>
  <text x="648" y="174" font-family="Arial, sans-serif" font-size="18" fill="#18312f">Wiki Output</text>
  <rect x="648" y="208" width="154" height="18" fill="#18312f" opacity=".12"/>
  <rect x="648" y="244" width="120" height="18" fill="#c33d32" opacity=".24"/>
  <rect x="672" y="280" width="142" height="18" fill="#2c8c63" opacity=".24"/>
  <rect x="672" y="316" width="116" height="18" fill="#2c8c63" opacity=".24"/>
  <rect x="648" y="374" width="154" height="18" fill="#18312f" opacity=".12"/>
  <rect x="672" y="410" width="132" height="18" fill="#2c8c63" opacity=".24"/>
  <path d="M354 314H612" stroke="#788780" stroke-width="2" stroke-dasharray="8 8"/>
  <path d="M604 306l14 8-14 8z" fill="#788780"/>
</svg>
